<?xml version="1.0" encoding="UTF-8" standalone="no"?>
<!-- Created with Inkscape (http://www.inkscape.org/) -->

<svg
   width="48"
   height="48"
   viewBox="0 0 12.7 12.7"
   version="1.1"
   id="svg12390"
   inkscape:version="1.1.2 (0a00cf5339, 2022-02-04)"
   sodipodi:docname="logo.svg"
   xmlns:inkscape="http://www.inkscape.org/namespaces/inkscape"
   xmlns:sodipodi="http://sodipodi.sourceforge.net/DTD/sodipodi-0.dtd"
   xmlns="http://www.w3.org/2000/svg"
   xmlns:svg="http://www.w3.org/2000/svg">
  <sodipodi:namedview
     id="namedview12392"
     pagecolor="#ffffff"
     bordercolor="#666666"
     borderopacity="1.0"
     inkscape:pageshadow="2"
     inkscape:pageopacity="0.0"
     inkscape:pagecheckerboard="0"
     inkscape:document-units="mm"
     showgrid="false"
     units="px"
     inkscape:zoom="8.6971282"
     inkscape:cx="8.3935752"
     inkscape:cy="40.47313"
     inkscape:window-width="1920"
     inkscape:window-height="1011"
     inkscape:window-x="0"
     inkscape:window-y="32"
     inkscape:window-maximized="1"
     inkscape:current-layer="layer1" />
  <defs
     id="defs12387" />
  <g
     inkscape:label="Layer 1"
     inkscape:groupmode="layer"
     id="layer1">
    <g
       id="g11984"
       inkscape:transform-center-x="2.5126138"
       inkscape:transform-center-y="1.7842468"
       transform="matrix(-0.62162725,-0.73245239,-0.73245239,0.62162725,107.93749,22.096524)" />
    <path
       id="circle5072"
       style="font-variation-settings:normal;vector-effect:none;fill:#000000;fill-opacity:1;fill-rule:evenodd;stroke-width:0.960684;stroke-linecap:butt;stroke-linejoin:miter;stroke-miterlimit:4;stroke-dasharray:none;stroke-dashoffset:0;stroke-opacity:1;-inkscape-stroke:none;stop-color:#000000"
       d="M 23.707031 1.3476562 A 22.54137 22.54137 0 0 0 1.1660156 23.888672 A 22.54137 22.54137 0 0 0 23.707031 46.431641 A 22.54137 22.54137 0 0 0 46.25 23.888672 A 22.54137 22.54137 0 0 0 23.707031 1.3476562 z M 21.458984 8.4980469 L 25.755859 8.4980469 L 36.431641 36.511719 L 32.492188 36.511719 L 29.939453 29.326172 L 17.3125 29.326172 L 14.759766 36.511719 L 10.763672 36.511719 L 21.458984 8.4980469 z M 23.597656 12.232422 L 18.457031 26.173828 L 28.757812 26.173828 L 23.597656 12.232422 z "
       transform="scale(0.26458333)" />
    <g
       aria-label="A"
       id="text10237"
       style="font-size:10.1672px;line-height:1.25;word-spacing:0px;fill:#ffffff;stroke-width:0.254181" />
  </g>
</svg>
